<?xml version="1.0" encoding="iso-8859-1"?>
<!-- Generator: Adobe Illustrator 19.0.0, SVG Export Plug-In . SVG Version: 6.00 Build 0)  -->
<svg version="1.1" id="Layer_1" xmlns="http://www.w3.org/2000/svg" xmlns:xlink="http://www.w3.org/1999/xlink" x="0px" y="0px"
	 viewBox="0 0 480.581 480.581" style="enable-background:new 0 0 480.581 480.581;" xml:space="preserve">
<g>
	<polygon points="311.688,190.105 290.475,168.893 277.333,182.034 245.757,150.458 224.544,171.671 256.12,203.247 
		242.979,216.388 264.192,237.601 277.334,224.46 308.91,256.036 330.122,234.823 298.547,203.247 	"/>
	<path d="M171.228,330.565l-21.213-21.213l-13.141,13.141l-31.576-31.576L84.085,312.13l31.576,31.576l-52.18,52.181l10.606,10.606
		c10.075,10.075,10.075,26.469,0,36.544c-10.076,10.075-26.469,10.075-36.545,0c-10.075-10.075-10.075-26.469,0-36.544
		l-21.213-21.213c-21.772,21.772-21.772,57.198,0,78.97c10.886,10.886,25.186,16.33,39.485,16.33s28.6-5.443,39.485-16.33
		c10.547-10.547,16.355-24.569,16.355-39.485c0-9.773-2.495-19.165-7.182-27.445l32.4-32.4l31.575,31.576l21.213-21.213
		l-31.576-31.576L171.228,330.565z"/>
	<path d="M207.868,223.703c-9.723-9.723-25.633-9.723-35.355,0l-15.182,15.182c-9.723,9.723-9.723,25.633,0,35.355l49.01,49.01
		c9.723,9.723,25.633,9.723,35.355,0l15.182-15.182c9.723-9.723,9.723-25.633,0-35.355L207.868,223.703z"/>
	<path d="M348.328,83.243c-9.723-9.723-25.633-9.723-35.355,0L297.79,98.426c-9.723,9.723-9.723,25.633,0,35.355l49.01,49.01
		c9.723,9.723,25.633,9.723,35.355,0l15.183-15.182c9.723-9.723,9.723-25.633,0-35.355L348.328,83.243z"/>
	<polygon points="480.58,21.213 459.368,0 417.793,41.574 386.217,9.998 365.004,31.211 396.58,62.787 383.439,75.928 
		404.652,97.141 417.793,84 449.37,115.576 470.582,94.363 439.006,62.787 	"/>
</g>
<g>
</g>
<g>
</g>
<g>
</g>
<g>
</g>
<g>
</g>
<g>
</g>
<g>
</g>
<g>
</g>
<g>
</g>
<g>
</g>
<g>
</g>
<g>
</g>
<g>
</g>
<g>
</g>
<g>
</g>
</svg>
